<mxfile host="app.diagrams.net" modified="2024-02-01T14:28:26.202Z" agent="Mozilla/5.0 (Windows NT 10.0; Win64; x64) AppleWebKit/537.36 (KHTML, like Gecko) Chrome/120.0.0.0 Safari/537.36" etag="kCxBiKNcDVVK_z24peqK" version="23.0.2" type="github">
  <diagram name="Page-1" id="Lz_YT9Ny3R0DxHCwnYko">
    <mxGraphModel dx="1434" dy="1880" grid="1" gridSize="10" guides="1" tooltips="1" connect="1" arrows="1" fold="1" page="1" pageScale="1" pageWidth="850" pageHeight="1100" math="0" shadow="0">
      <root>
        <mxCell id="0" />
        <mxCell id="1" parent="0" />
        <mxCell id="0Z1GudnxE-C9GBcNJ5cL-45" value="" style="endArrow=none;dashed=1;html=1;rounded=0;" edge="1" parent="1">
          <mxGeometry width="50" height="50" relative="1" as="geometry">
            <mxPoint x="280" y="500" as="sourcePoint" />
            <mxPoint x="280" y="50" as="targetPoint" />
          </mxGeometry>
        </mxCell>
        <mxCell id="0Z1GudnxE-C9GBcNJ5cL-46" value="" style="group" vertex="1" connectable="0" parent="1">
          <mxGeometry x="90" y="-700" width="315" height="610" as="geometry" />
        </mxCell>
        <mxCell id="0Z1GudnxE-C9GBcNJ5cL-1" value="" style="ellipse;html=1;shape=startState;fillColor=#000000;strokeColor=#ff0000;" vertex="1" parent="0Z1GudnxE-C9GBcNJ5cL-46">
          <mxGeometry x="45" width="30" height="30" as="geometry" />
        </mxCell>
        <mxCell id="0Z1GudnxE-C9GBcNJ5cL-2" value="" style="edgeStyle=orthogonalEdgeStyle;html=1;verticalAlign=bottom;endArrow=open;endSize=8;strokeColor=#ff0000;rounded=0;" edge="1" source="0Z1GudnxE-C9GBcNJ5cL-1" parent="0Z1GudnxE-C9GBcNJ5cL-46">
          <mxGeometry relative="1" as="geometry">
            <mxPoint x="60" y="90" as="targetPoint" />
          </mxGeometry>
        </mxCell>
        <mxCell id="0Z1GudnxE-C9GBcNJ5cL-3" value="Червоне світло&lt;br&gt;(стояти)" style="rounded=1;whiteSpace=wrap;html=1;" vertex="1" parent="0Z1GudnxE-C9GBcNJ5cL-46">
          <mxGeometry y="90" width="120" height="60" as="geometry" />
        </mxCell>
        <mxCell id="0Z1GudnxE-C9GBcNJ5cL-4" value="очікування" style="ellipse;whiteSpace=wrap;html=1;" vertex="1" parent="0Z1GudnxE-C9GBcNJ5cL-46">
          <mxGeometry y="180" width="120" height="80" as="geometry" />
        </mxCell>
        <mxCell id="0Z1GudnxE-C9GBcNJ5cL-5" style="edgeStyle=orthogonalEdgeStyle;rounded=0;orthogonalLoop=1;jettySize=auto;html=1;" edge="1" parent="0Z1GudnxE-C9GBcNJ5cL-46" source="0Z1GudnxE-C9GBcNJ5cL-3" target="0Z1GudnxE-C9GBcNJ5cL-4">
          <mxGeometry relative="1" as="geometry" />
        </mxCell>
        <mxCell id="0Z1GudnxE-C9GBcNJ5cL-6" value="Автономний режим" style="rounded=1;whiteSpace=wrap;html=1;" vertex="1" parent="0Z1GudnxE-C9GBcNJ5cL-46">
          <mxGeometry x="195" y="190" width="120" height="60" as="geometry" />
        </mxCell>
        <mxCell id="0Z1GudnxE-C9GBcNJ5cL-14" style="edgeStyle=orthogonalEdgeStyle;rounded=0;orthogonalLoop=1;jettySize=auto;html=1;entryX=0;entryY=0.5;entryDx=0;entryDy=0;curved=1;exitX=1;exitY=0.5;exitDx=0;exitDy=0;" edge="1" parent="0Z1GudnxE-C9GBcNJ5cL-46" source="0Z1GudnxE-C9GBcNJ5cL-4" target="0Z1GudnxE-C9GBcNJ5cL-6">
          <mxGeometry relative="1" as="geometry">
            <Array as="points">
              <mxPoint x="125" y="220" />
              <mxPoint x="125" y="170" />
              <mxPoint x="185" y="170" />
              <mxPoint x="185" y="220" />
            </Array>
          </mxGeometry>
        </mxCell>
        <mxCell id="0Z1GudnxE-C9GBcNJ5cL-16" value="Якщо відсутня електроенергія" style="edgeLabel;html=1;align=center;verticalAlign=middle;resizable=0;points=[];" vertex="1" connectable="0" parent="0Z1GudnxE-C9GBcNJ5cL-14">
          <mxGeometry x="-0.0286" y="1" relative="1" as="geometry">
            <mxPoint as="offset" />
          </mxGeometry>
        </mxCell>
        <mxCell id="0Z1GudnxE-C9GBcNJ5cL-8" value="Червоне світло&lt;br&gt;(приготуватись)" style="rounded=1;whiteSpace=wrap;html=1;" vertex="1" parent="0Z1GudnxE-C9GBcNJ5cL-46">
          <mxGeometry y="290" width="120" height="60" as="geometry" />
        </mxCell>
        <mxCell id="0Z1GudnxE-C9GBcNJ5cL-10" style="edgeStyle=orthogonalEdgeStyle;rounded=0;orthogonalLoop=1;jettySize=auto;html=1;" edge="1" parent="0Z1GudnxE-C9GBcNJ5cL-46" source="0Z1GudnxE-C9GBcNJ5cL-4" target="0Z1GudnxE-C9GBcNJ5cL-8">
          <mxGeometry relative="1" as="geometry" />
        </mxCell>
        <mxCell id="0Z1GudnxE-C9GBcNJ5cL-9" value="очікування" style="ellipse;whiteSpace=wrap;html=1;" vertex="1" parent="0Z1GudnxE-C9GBcNJ5cL-46">
          <mxGeometry y="380" width="120" height="80" as="geometry" />
        </mxCell>
        <mxCell id="0Z1GudnxE-C9GBcNJ5cL-7" style="edgeStyle=orthogonalEdgeStyle;rounded=0;orthogonalLoop=1;jettySize=auto;html=1;" edge="1" parent="0Z1GudnxE-C9GBcNJ5cL-46" source="0Z1GudnxE-C9GBcNJ5cL-8" target="0Z1GudnxE-C9GBcNJ5cL-9">
          <mxGeometry relative="1" as="geometry" />
        </mxCell>
        <mxCell id="0Z1GudnxE-C9GBcNJ5cL-11" value="Зелене світло&lt;br&gt;(рушати)" style="rounded=1;whiteSpace=wrap;html=1;" vertex="1" parent="0Z1GudnxE-C9GBcNJ5cL-46">
          <mxGeometry y="490" width="120" height="60" as="geometry" />
        </mxCell>
        <mxCell id="0Z1GudnxE-C9GBcNJ5cL-12" style="edgeStyle=orthogonalEdgeStyle;rounded=0;orthogonalLoop=1;jettySize=auto;html=1;" edge="1" parent="0Z1GudnxE-C9GBcNJ5cL-46" source="0Z1GudnxE-C9GBcNJ5cL-9" target="0Z1GudnxE-C9GBcNJ5cL-11">
          <mxGeometry relative="1" as="geometry" />
        </mxCell>
        <mxCell id="0Z1GudnxE-C9GBcNJ5cL-13" value="Автономний режим" style="rounded=1;whiteSpace=wrap;html=1;" vertex="1" parent="0Z1GudnxE-C9GBcNJ5cL-46">
          <mxGeometry x="195" y="390" width="120" height="60" as="geometry" />
        </mxCell>
        <mxCell id="0Z1GudnxE-C9GBcNJ5cL-15" style="edgeStyle=orthogonalEdgeStyle;rounded=0;orthogonalLoop=1;jettySize=auto;html=1;entryX=0;entryY=0.5;entryDx=0;entryDy=0;curved=1;exitX=0.983;exitY=0.425;exitDx=0;exitDy=0;exitPerimeter=0;" edge="1" parent="0Z1GudnxE-C9GBcNJ5cL-46" source="0Z1GudnxE-C9GBcNJ5cL-9" target="0Z1GudnxE-C9GBcNJ5cL-13">
          <mxGeometry relative="1" as="geometry">
            <Array as="points">
              <mxPoint x="125" y="414" />
              <mxPoint x="125" y="370" />
              <mxPoint x="185" y="370" />
            </Array>
          </mxGeometry>
        </mxCell>
        <mxCell id="0Z1GudnxE-C9GBcNJ5cL-17" value="Якщо відсутня електроенергія" style="edgeLabel;html=1;align=center;verticalAlign=middle;resizable=0;points=[];" vertex="1" connectable="0" parent="0Z1GudnxE-C9GBcNJ5cL-15">
          <mxGeometry x="-0.0524" relative="1" as="geometry">
            <mxPoint as="offset" />
          </mxGeometry>
        </mxCell>
        <mxCell id="0Z1GudnxE-C9GBcNJ5cL-18" value="" style="ellipse;html=1;shape=endState;fillColor=#000000;strokeColor=#ff0000;" vertex="1" parent="0Z1GudnxE-C9GBcNJ5cL-46">
          <mxGeometry x="45" y="580" width="30" height="30" as="geometry" />
        </mxCell>
        <mxCell id="0Z1GudnxE-C9GBcNJ5cL-19" style="edgeStyle=orthogonalEdgeStyle;rounded=0;orthogonalLoop=1;jettySize=auto;html=1;" edge="1" parent="0Z1GudnxE-C9GBcNJ5cL-46" source="0Z1GudnxE-C9GBcNJ5cL-11" target="0Z1GudnxE-C9GBcNJ5cL-18">
          <mxGeometry relative="1" as="geometry" />
        </mxCell>
        <mxCell id="0Z1GudnxE-C9GBcNJ5cL-48" value="1." style="text;html=1;align=center;verticalAlign=middle;resizable=0;points=[];autosize=1;strokeColor=none;fillColor=none;" vertex="1" parent="0Z1GudnxE-C9GBcNJ5cL-46">
          <mxGeometry x="20" width="30" height="30" as="geometry" />
        </mxCell>
        <mxCell id="0Z1GudnxE-C9GBcNJ5cL-47" value="" style="group" vertex="1" connectable="0" parent="1">
          <mxGeometry x="600" y="-700" width="330" height="610" as="geometry" />
        </mxCell>
        <mxCell id="0Z1GudnxE-C9GBcNJ5cL-20" value="" style="ellipse;html=1;shape=startState;fillColor=#000000;strokeColor=#ff0000;" vertex="1" parent="0Z1GudnxE-C9GBcNJ5cL-47">
          <mxGeometry x="45" width="30" height="30" as="geometry" />
        </mxCell>
        <mxCell id="0Z1GudnxE-C9GBcNJ5cL-21" value="" style="edgeStyle=orthogonalEdgeStyle;html=1;verticalAlign=bottom;endArrow=open;endSize=8;strokeColor=#ff0000;rounded=0;" edge="1" parent="0Z1GudnxE-C9GBcNJ5cL-47" source="0Z1GudnxE-C9GBcNJ5cL-20">
          <mxGeometry relative="1" as="geometry">
            <mxPoint x="60" y="90" as="targetPoint" />
          </mxGeometry>
        </mxCell>
        <mxCell id="0Z1GudnxE-C9GBcNJ5cL-23" value="Включення" style="rounded=1;whiteSpace=wrap;html=1;" vertex="1" parent="0Z1GudnxE-C9GBcNJ5cL-47">
          <mxGeometry y="90" width="120" height="60" as="geometry" />
        </mxCell>
        <mxCell id="0Z1GudnxE-C9GBcNJ5cL-27" value="очікування вводу" style="ellipse;whiteSpace=wrap;html=1;" vertex="1" parent="0Z1GudnxE-C9GBcNJ5cL-47">
          <mxGeometry y="180" width="120" height="80" as="geometry" />
        </mxCell>
        <mxCell id="0Z1GudnxE-C9GBcNJ5cL-22" style="edgeStyle=orthogonalEdgeStyle;rounded=0;orthogonalLoop=1;jettySize=auto;html=1;" edge="1" parent="0Z1GudnxE-C9GBcNJ5cL-47" source="0Z1GudnxE-C9GBcNJ5cL-23" target="0Z1GudnxE-C9GBcNJ5cL-27">
          <mxGeometry relative="1" as="geometry" />
        </mxCell>
        <mxCell id="0Z1GudnxE-C9GBcNJ5cL-28" value="виключення" style="rounded=1;whiteSpace=wrap;html=1;" vertex="1" parent="0Z1GudnxE-C9GBcNJ5cL-47">
          <mxGeometry x="195" y="190" width="120" height="60" as="geometry" />
        </mxCell>
        <mxCell id="0Z1GudnxE-C9GBcNJ5cL-25" style="edgeStyle=orthogonalEdgeStyle;rounded=0;orthogonalLoop=1;jettySize=auto;html=1;entryX=0;entryY=0.5;entryDx=0;entryDy=0;curved=1;exitX=1;exitY=0.5;exitDx=0;exitDy=0;" edge="1" parent="0Z1GudnxE-C9GBcNJ5cL-47" source="0Z1GudnxE-C9GBcNJ5cL-27" target="0Z1GudnxE-C9GBcNJ5cL-28">
          <mxGeometry relative="1" as="geometry">
            <Array as="points">
              <mxPoint x="125" y="220" />
              <mxPoint x="125" y="170" />
              <mxPoint x="185" y="170" />
              <mxPoint x="185" y="220" />
            </Array>
          </mxGeometry>
        </mxCell>
        <mxCell id="0Z1GudnxE-C9GBcNJ5cL-26" value="вводу не було" style="edgeLabel;html=1;align=center;verticalAlign=middle;resizable=0;points=[];" vertex="1" connectable="0" parent="0Z1GudnxE-C9GBcNJ5cL-25">
          <mxGeometry x="-0.0286" y="1" relative="1" as="geometry">
            <mxPoint as="offset" />
          </mxGeometry>
        </mxCell>
        <mxCell id="0Z1GudnxE-C9GBcNJ5cL-30" value="отримання даних вводу" style="rounded=1;whiteSpace=wrap;html=1;" vertex="1" parent="0Z1GudnxE-C9GBcNJ5cL-47">
          <mxGeometry y="290" width="120" height="60" as="geometry" />
        </mxCell>
        <mxCell id="0Z1GudnxE-C9GBcNJ5cL-24" style="edgeStyle=orthogonalEdgeStyle;rounded=0;orthogonalLoop=1;jettySize=auto;html=1;" edge="1" parent="0Z1GudnxE-C9GBcNJ5cL-47" source="0Z1GudnxE-C9GBcNJ5cL-27" target="0Z1GudnxE-C9GBcNJ5cL-30">
          <mxGeometry relative="1" as="geometry" />
        </mxCell>
        <mxCell id="0Z1GudnxE-C9GBcNJ5cL-34" value="опрацювання даних" style="ellipse;whiteSpace=wrap;html=1;" vertex="1" parent="0Z1GudnxE-C9GBcNJ5cL-47">
          <mxGeometry y="380" width="120" height="80" as="geometry" />
        </mxCell>
        <mxCell id="0Z1GudnxE-C9GBcNJ5cL-29" style="edgeStyle=orthogonalEdgeStyle;rounded=0;orthogonalLoop=1;jettySize=auto;html=1;" edge="1" parent="0Z1GudnxE-C9GBcNJ5cL-47" source="0Z1GudnxE-C9GBcNJ5cL-30" target="0Z1GudnxE-C9GBcNJ5cL-34">
          <mxGeometry relative="1" as="geometry" />
        </mxCell>
        <mxCell id="0Z1GudnxE-C9GBcNJ5cL-36" value="повернення результату" style="rounded=1;whiteSpace=wrap;html=1;" vertex="1" parent="0Z1GudnxE-C9GBcNJ5cL-47">
          <mxGeometry y="490" width="120" height="60" as="geometry" />
        </mxCell>
        <mxCell id="0Z1GudnxE-C9GBcNJ5cL-31" style="edgeStyle=orthogonalEdgeStyle;rounded=0;orthogonalLoop=1;jettySize=auto;html=1;" edge="1" parent="0Z1GudnxE-C9GBcNJ5cL-47" source="0Z1GudnxE-C9GBcNJ5cL-34" target="0Z1GudnxE-C9GBcNJ5cL-36">
          <mxGeometry relative="1" as="geometry" />
        </mxCell>
        <mxCell id="0Z1GudnxE-C9GBcNJ5cL-41" style="edgeStyle=orthogonalEdgeStyle;rounded=0;orthogonalLoop=1;jettySize=auto;html=1;entryX=0.833;entryY=0.5;entryDx=0;entryDy=0;entryPerimeter=0;" edge="1" parent="0Z1GudnxE-C9GBcNJ5cL-47">
          <mxGeometry relative="1" as="geometry">
            <mxPoint x="260.01" y="445" as="sourcePoint" />
            <mxPoint x="75.00000000000001" y="590" as="targetPoint" />
            <Array as="points">
              <mxPoint x="260.01" y="595" />
              <mxPoint x="75.01" y="595" />
            </Array>
          </mxGeometry>
        </mxCell>
        <mxCell id="0Z1GudnxE-C9GBcNJ5cL-37" value="виключення" style="rounded=1;whiteSpace=wrap;html=1;" vertex="1" parent="0Z1GudnxE-C9GBcNJ5cL-47">
          <mxGeometry x="195" y="390" width="120" height="60" as="geometry" />
        </mxCell>
        <mxCell id="0Z1GudnxE-C9GBcNJ5cL-32" style="edgeStyle=orthogonalEdgeStyle;rounded=0;orthogonalLoop=1;jettySize=auto;html=1;entryX=0;entryY=0.5;entryDx=0;entryDy=0;curved=1;exitX=0.983;exitY=0.425;exitDx=0;exitDy=0;exitPerimeter=0;" edge="1" parent="0Z1GudnxE-C9GBcNJ5cL-47" source="0Z1GudnxE-C9GBcNJ5cL-34" target="0Z1GudnxE-C9GBcNJ5cL-37">
          <mxGeometry relative="1" as="geometry">
            <Array as="points">
              <mxPoint x="125" y="414" />
              <mxPoint x="125" y="370" />
              <mxPoint x="185" y="370" />
            </Array>
          </mxGeometry>
        </mxCell>
        <mxCell id="0Z1GudnxE-C9GBcNJ5cL-33" value="припинення роботи" style="edgeLabel;html=1;align=center;verticalAlign=middle;resizable=0;points=[];" vertex="1" connectable="0" parent="0Z1GudnxE-C9GBcNJ5cL-32">
          <mxGeometry x="-0.0524" relative="1" as="geometry">
            <mxPoint as="offset" />
          </mxGeometry>
        </mxCell>
        <mxCell id="0Z1GudnxE-C9GBcNJ5cL-38" value="" style="ellipse;html=1;shape=endState;fillColor=#000000;strokeColor=#ff0000;" vertex="1" parent="0Z1GudnxE-C9GBcNJ5cL-47">
          <mxGeometry x="45" y="580" width="30" height="30" as="geometry" />
        </mxCell>
        <mxCell id="0Z1GudnxE-C9GBcNJ5cL-42" style="edgeStyle=orthogonalEdgeStyle;rounded=0;orthogonalLoop=1;jettySize=auto;html=1;entryX=1;entryY=0.5;entryDx=0;entryDy=0;" edge="1" parent="0Z1GudnxE-C9GBcNJ5cL-47" source="0Z1GudnxE-C9GBcNJ5cL-28" target="0Z1GudnxE-C9GBcNJ5cL-38">
          <mxGeometry relative="1" as="geometry">
            <Array as="points">
              <mxPoint x="330" y="220" />
              <mxPoint x="330" y="595" />
            </Array>
          </mxGeometry>
        </mxCell>
        <mxCell id="0Z1GudnxE-C9GBcNJ5cL-35" style="edgeStyle=orthogonalEdgeStyle;rounded=0;orthogonalLoop=1;jettySize=auto;html=1;" edge="1" parent="0Z1GudnxE-C9GBcNJ5cL-47" source="0Z1GudnxE-C9GBcNJ5cL-36" target="0Z1GudnxE-C9GBcNJ5cL-38">
          <mxGeometry relative="1" as="geometry" />
        </mxCell>
        <mxCell id="0Z1GudnxE-C9GBcNJ5cL-49" value="2" style="text;html=1;align=center;verticalAlign=middle;resizable=0;points=[];autosize=1;strokeColor=none;fillColor=none;" vertex="1" parent="0Z1GudnxE-C9GBcNJ5cL-47">
          <mxGeometry x="15" width="30" height="30" as="geometry" />
        </mxCell>
        <mxCell id="0Z1GudnxE-C9GBcNJ5cL-50" value="Сайт магазину" style="text;html=1;align=center;verticalAlign=middle;resizable=0;points=[];autosize=1;strokeColor=none;fillColor=none;fontSize=14;" vertex="1" parent="1">
          <mxGeometry x="120" y="50" width="120" height="30" as="geometry" />
        </mxCell>
        <mxCell id="0Z1GudnxE-C9GBcNJ5cL-51" value="" style="endArrow=none;dashed=1;html=1;rounded=0;" edge="1" parent="1">
          <mxGeometry width="50" height="50" relative="1" as="geometry">
            <mxPoint x="480" y="500" as="sourcePoint" />
            <mxPoint x="480" y="50" as="targetPoint" />
          </mxGeometry>
        </mxCell>
        <mxCell id="0Z1GudnxE-C9GBcNJ5cL-52" value="Сайт магазину" style="text;html=1;align=center;verticalAlign=middle;resizable=0;points=[];autosize=1;strokeColor=none;fillColor=none;fontSize=14;" vertex="1" parent="1">
          <mxGeometry x="320" y="50" width="120" height="30" as="geometry" />
        </mxCell>
      </root>
    </mxGraphModel>
  </diagram>
</mxfile>
